<svg width="203" height="204" viewBox="0 0 203 204" fill="none" xmlns="http://www.w3.org/2000/svg">
<path fill-rule="evenodd" clip-rule="evenodd" d="M18.676 18.768V185.232H184.324V18.768H18.676ZM144.544 99.6214V99.6238C146.133 99.6288 147.938 99.7109 149.296 99.8588C154.825 100.46 159.131 102.857 162.794 107.373C164.619 109.622 165.243 110.606 165.11 111.027C165.024 111.299 163.772 112.2 159.793 114.854C155.883 117.462 154.624 118.244 154.332 118.244C154.035 118.244 153.417 117.605 152.527 116.378C150.812 114.016 149.061 112.938 146.354 112.579C143.442 112.191 140.831 113.113 139.552 114.981C138.459 116.577 138.294 119.145 139.163 121.011C140.17 123.172 141.992 124.367 148.974 127.444C157.028 130.993 161.109 133.422 164.081 136.436C167.282 139.682 168.904 143.431 169.402 148.732C169.645 151.316 169.348 154.379 168.612 156.869C166.807 162.973 161.938 167.443 154.8 169.546C152.827 170.128 150.991 170.475 149.175 170.608C146.403 170.814 142.434 170.701 140.045 170.351C134.003 169.467 127.181 165.933 123.779 161.926C122.11 159.959 119.978 156.722 119.978 156.153C119.978 155.878 120.113 155.722 120.65 155.379C122.242 154.363 131.366 149.121 131.543 149.121C131.65 149.121 132.127 149.686 132.602 150.375C133.678 151.937 136.325 154.621 137.67 155.517C138.77 156.248 140.175 156.836 141.844 157.26C142.799 157.499 143.305 157.542 145.391 157.542C147.521 157.541 147.958 157.505 148.911 157.248C151.433 156.566 153.401 155.155 154.235 153.431C154.6 152.687 154.607 152.594 154.607 150.787V148.915L154.159 148.021C153.074 145.856 150.735 144.371 143.341 141.152C139.945 139.674 135.785 137.589 134.161 136.552C130.455 134.185 127.887 131.48 126.201 128.167C124.524 124.874 124.274 123.648 124.27 118.695C124.266 114.818 124.259 114.865 125.058 112.391C125.783 110.145 127.266 107.637 128.904 105.888C132.173 102.396 136.948 100.152 142.061 99.7057C142.715 99.6435 143.591 99.6192 144.544 99.6221L144.544 99.6214ZM100.55 100.387H100.552C110.398 100.392 116.043 100.426 116.133 100.484C116.304 100.59 116.325 101.451 116.325 106.947V113.288L106.5 113.324L96.6741 113.36V141.394C96.6741 156.814 96.6431 169.521 96.6004 169.633C96.5309 169.822 95.7752 169.837 89.3821 169.837H82.2414L82.1676 169.547C82.12 169.387 82.0852 156.68 82.0844 141.308L82.082 113.358L72.2564 113.323L62.4308 113.287V107.021C62.4308 102.052 62.4649 100.721 62.5965 100.589C62.7317 100.449 67.7462 100.413 89.3527 100.391C93.5187 100.387 97.2675 100.385 100.55 100.387Z" fill="#0288D1"/>
</svg>
